<?xml version="1.0" encoding="utf-8"?>
<!-- Uploaded to: SVG Repo, www.svgrepo.com, Generator: SVG Repo Mixer Tools -->
<svg fill="#000000" width="800px" height="800px" viewBox="0 0 32 32" version="1.1" xmlns="http://www.w3.org/2000/svg">
<title>arcane-mask</title>
<path d="M6.467 15.551c0 7.3 9.485 15.234 9.485 15.234s9.485-7.933 9.484-15.234c0-19.344-18.969-18.979-18.969 0zM13.249 23.532c-1.207-1.306-2.12-3.005-2.697-4.854-0.924-0.258-1.599-1.109-1.59-2.114 0.006-0.715 0.357-1.347 0.893-1.739-0.114-2.053 0.18-4.089 0.931-5.817l0.929 5.477c0.928 0.255 1.607 1.108 1.598 2.117-0.006 0.735-0.377 1.382-0.939 1.771l0.875 5.16zM18.654 23.532l0.875-5.16c-0.562-0.389-0.933-1.035-0.939-1.771-0.009-1.008 0.67-1.862 1.598-2.117l0.929-5.476c0.751 1.728 1.045 3.764 0.931 5.817 0.536 0.392 0.887 1.023 0.893 1.738 0.009 1.005-0.666 1.857-1.59 2.114-0.577 1.848-1.49 3.548-2.697 4.854z"></path>
</svg>