<?xml version="1.0" encoding="utf-8"?>

<!DOCTYPE svg PUBLIC "-//W3C//DTD SVG 1.1//EN" "http://www.w3.org/Graphics/SVG/1.1/DTD/svg11.dtd">
<!-- Uploaded to: SVG Repo, www.svgrepo.com, Generator: SVG Repo Mixer Tools -->
<svg height="800px" width="800px" version="1.1" id="_x32_" xmlns="http://www.w3.org/2000/svg" xmlns:xlink="http://www.w3.org/1999/xlink" 
	 viewBox="0 0 512 512"  xml:space="preserve">
<style type="text/css">
	.st0{fill:#000000;}
</style>
<g>
	<path class="st0" d="M230.402,510.719c-0.039-0.008-0.082-0.008-0.122-0.016c-0.007,0-0.007,0-0.007,0L230.402,510.719z"/>
	<path class="st0" d="M437.015,74.993C390.766,28.68,326.644-0.007,256,0c-53.726-0.007-103.766,16.626-144.954,44.962
		c-19.57,13.453-37.121,29.554-52.21,47.71l-0.004,0.008C22.078,136.946-0.008,194,0,255.993
		c-0.008,63.133,22.93,121.109,60.875,165.726c37.93,44.633,90.961,76.117,151.234,86.531c5.981,1.031,12.039,1.859,18.172,2.453
		C238.789,511.586,247.375,512,256,512c70.644,0.008,134.766-28.695,181.015-74.992c46.305-46.281,74.993-110.39,74.985-181.015
		C512.008,185.367,483.32,121.258,437.015,74.993z M208.011,471.867c-47.82-10.578-89.855-36.656-120.538-72.758
		c-32.801-38.617-52.555-88.477-52.563-143.117c0.004-29.172,5.668-56.969,15.902-82.438v4.828c0,2.297,3.414,3.414,6.286,5.117
		c2.054,1.242,1.125,10.242,1.707,16.485c0.542,6.281,9.074,21.07,11.945,20.484c2.832-0.546-6.828-22.726-6.828-22.726
		s-0.582-7.992,2.832-7.992c3.414,0,2.832,7.992,3.996,13.11c1.122,5.117,9.66,14.195,11.91,16.484
		c2.285,2.25,0,12.523,0.582,14.242c0.578,1.703,21.058,13.61,22.766,14.187c1.702,0.578,6.828-1.125,9.656-0.578
		c2.832,0.578,3.418,6.82,5.703,7.984c2.25,1.133,12.488,1.718,14.777,2.25c2.25,0.586,2.25,9.118,5.122,10.829
		c2.832,1.703,11.945,10.82,11.945,10.82s6.825-4,8.535-5.156c1.703-1.126,5.122,2.289,5.122,2.289s0.539,14.813,0.539,17.641
		c0,2.836-10.782,11.953-10.782,11.953s-0.582,14.782,0,20.477c0.543,5.664,12.492,19.32,12.492,19.32s3.992,10.782,5.118,12.524
		c1.164,1.703,20.48,15.898,20.48,15.898s0,29.594,0,35.266c0,5.703,3.996,7.992,3.996,11.406v23.859
		c0,7.398,6.246,11.398,8.535,15.351C208.789,462.657,207.957,467.016,208.011,471.867z M412.351,412.329
		c-40.07,40.031-95.234,64.758-156.351,64.766c-7.512,0-14.902-0.367-22.137-1.11l-0.215-0.031l0.082,0.008
		c-1.832-0.165-3.668-0.406-5.496-0.633c-0.321-0.563-0.551-1.274-0.551-2.344c0-5.133,2.293-5.133,2.871-9.086
		c0.547-3.992-5.703-5.109-1.125-6.242c4.539-1.157,3.957-7.406,3.375-9.118c-0.543-1.703,6.828,0.586,10.82-2.297
		c3.996-2.82,2.832-10.781,1.707-13.641c-1.125-2.836,2.832,0,4.539,0.578c1.706,0.578,5.699-4.531,6.824-9.117
		c1.168-4.532,9.117-19.899,8.535-23.313c-0.539-3.398,7.992-9.07,13.652-10.234c5.699-1.125,7.414-2.828,9.664-10.242
		c2.286-7.367,3.41-19.898,2.867-25.015c-0.582-5.126,13.07-18.774,13.07-23.891c0-5.086-3.992-9.078-9.113-12.5
		c-5.118-3.406-16.489-3.406-19.321-3.992c-2.828-0.539-4.574-5.656-9.113-6.242c-4.535-0.578-8.531,3.422-13.657,2.29
		c-5.117-1.157-2.828-5.118,0.586-7.406c3.414-2.289-0.586-10.82-3.996-15.953c-3.414-5.07-10.238-4.532-15.902-3.954
		c-5.699,0.586-6.825-6.242-12.531-13.062c-5.661-6.836-15.356-4.586-19.895-5.133c-4.542-0.57-11.367-5.695-15.363-6.282
		c-3.992-0.531-13.648,13.118-15.898,13.664c-2.289,0.578-2.874-3.414-6.289-4.538c-3.41-1.126-5.117,5.664-11.359,2.289
		c-6.246-3.414-1.707-15.946-1.707-22.195c0-6.282-5.121,1.133-11.946-1.156c-6.832-2.25-2.293-6.829,1.126-12.493
		c3.41-5.695,3.992-8.531-2.25-7.414c-6.25,1.172-7.414-2.25-7.953,2.297c-0.586,4.531-3.414,9.656-11.946,9.117
		c-8.535-0.586-9.699-8.539-9.699-14.828c0-6.234,1.703-6.234,5.703-14.187c3.996-7.992,7.406-7.992,11.363-10.242
		c3.992-2.282,4.578,0.539,7.95,0c3.414-0.578,3.414-2.282,4.582-5.125c1.125-2.828,2.832,0.594,12.485,0.594
		c9.695,0,6.441,1.078,6.441,1.078s-3.414,6.828,4.539,15.906c7.95,9.078,7.95-7.953,7.95-15.906
		c0-7.946,3.414-10.242,11.363-15.906c7.957-5.657,9.082-13.61,18.156-19.266c9.074-5.711,28.355-12.5,34.054-17.031
		c5.665-4.539-3.414-15.914,4.539-18.164c7.95-2.282,17.024-2.282,26.106-5.696c9.074-3.374,5.664-9.07,1.125-11.32
		c-4.542-2.297-1.125-12.492-4.542-15.898c-3.414-3.43-9.074,1.118-17.024,3.406c-7.953,2.25-3.414-15.906-14.742-13.618
		c-11.363,2.25-7.954,22.696-13.614,22.696c-5.703,0-4.539,5.664-10.242,11.32c-5.66,5.695-9.074,0-4.535-9.039
		c4.535-9.11-4.538-6.828-13.613-7.953c-9.082-1.157-10.207-5.695,4.539-14.774c14.734-9.078,32.93-10.203,40.839-19.282
		c7.954-9.07-10.203-2.289-12.453-5.695c-2.285-3.375-6.824-4.539-14.778,0c-7.949,4.578-17.023,4.578-27.23,5.695
		c-6.699,0.742-16.34-1.945-25.398-4.515C182.867,44.336,218.297,34.914,256,34.906c61.117,0.008,116.281,24.726,156.351,64.774
		c40.016,40.054,64.726,95.218,64.742,156.313C477.078,317.102,452.367,372.25,412.351,412.329z"/>
</g>
</svg>