<?xml version="1.0" ?>
<!DOCTYPE svg  PUBLIC '-//W3C//DTD SVG 1.0//EN'  'http://www.w3.org/TR/2001/REC-SVG-20010904/DTD/svg10.dtd'>
<!-- Uploaded to: SVG Repo, www.svgrepo.com, Generator: SVG Repo Mixer Tools -->
<svg fill="#000000" width="800px" height="800px" viewBox="0 0 100 100" version="1.0" xml:space="preserve" xmlns="http://www.w3.org/2000/svg" xmlns:xlink="http://www.w3.org/1999/xlink">
<g id="_x31_"/>
<g id="_x32_"/>
<g id="_x33_"/>
<g id="_x34_"/>
<g id="_x35_"/>
<g id="_x36_"/>
<g id="_x37_"/>
<g id="_x38_"/>
<g id="_x39_"/>
<g id="_x31_0"/>
<g id="_x31_1"/>
<g id="_x31_2"/>
<g id="_x31_3"/>
<g id="_x31_4"/>
<g id="_x31_5"/>
<g id="_x31_6"/>
<g id="_x31_7"/>
<g id="_x31_8"/>
<g id="_x31_9"/>
<g id="_x32_0"/>
<g id="_x32_1"/>
<g id="_x32_2"/>
<g id="_x32_3">
<path d="M50,80.1c-1.5,0-3-0.6-4.2-1.7l-6.9-6.7c-0.4-0.4-0.6-0.8-0.6-1.3L35.9,22c0-0.5,0.2-1.1,0.5-1.5c0.4-0.4,0.9-0.6,1.4-0.6   h1.3c4.3,0,8.4,2.3,10.5,6.1l0.3,0.6l0.4-0.7c2.2-3.7,6.2-6,10.4-6h1.2c0.5,0,1.1,0.2,1.4,0.6c0.4,0.4,0.6,0.9,0.6,1.5l-1.8,37.7   l-0.6,10.7c0,0.5-0.2,1-0.6,1.3l-6.9,6.7C53,79.6,51.5,80.1,50,80.1z M42.2,69.4l6.4,6.2c0.8,0.8,2,0.8,2.8,0l6.4-6.2l0.5-9.9   L60,23.9c-2.5,0.3-4.8,1.7-6.1,3.9l-2.2,3.7c-0.4,0.6-1,1-1.7,1c0,0,0,0,0,0c-0.7,0-1.4-0.4-1.7-1l-2-3.6c-1.3-2.3-3.6-3.8-6.2-4   L42.2,69.4z M72.5,64.1c-0.1,0-0.2,0-0.3,0c-0.8-0.1-1.4-0.7-1.7-1.5c0-0.1-1-3.5-4-3.6c-0.3,0-1.1,0.5-1.7,0.9   c-1.3,0.8-2.9,1.6-4.5,1.6h-0.1c-0.5,0-1.1-0.2-1.4-0.6c-0.4-0.4-0.6-0.9-0.6-1.5l0.7-15.7c0.1-1.1,0.9-1.9,2-1.9h21   c3.8,0,7.1,2.8,7.7,6.6l1.7,10.4c0.1,0.7-0.1,1.4-0.5,1.9c-0.7,0.8-1.9,1.1-2.8,0.6c0,0-4.1-2.3-8.1-2.3c-3.4,0-5.9,4-5.9,4.1   C73.8,63.8,73.2,64.1,72.5,64.1z M66.6,55.1C66.6,55.1,66.6,55.1,66.6,55.1c3.2,0.1,5.1,1.8,6.3,3.4c1.6-1.6,4.1-3.4,7.2-3.4   c2.6,0,5.1,0.7,6.9,1.4l-1.2-7.4c-0.3-1.8-1.9-3.2-3.7-3.2H63l-0.5,10.8c0.2-0.1,0.3-0.2,0.5-0.3C64.2,55.7,65.3,55.1,66.6,55.1z    M72.5,64.1c-0.1,0-0.2,0-0.3,0c-0.8-0.1-1.4-0.7-1.7-1.5c0-0.1-1-3.5-4-3.6c-0.3,0-1.1,0.5-1.7,0.9c-1.3,0.8-2.9,1.6-4.5,1.6h-0.1   c-0.5,0-1.1-0.2-1.4-0.6c-0.4-0.4-0.6-0.9-0.6-1.5l0.7-15.7c0.1-1.1,0.9-1.9,2-1.9h21c3.8,0,7.1,2.8,7.7,6.6l1.7,10.4   c0.1,0.7-0.1,1.4-0.5,1.9c-0.7,0.8-1.9,1.1-2.8,0.6c0,0-4.1-2.3-8.1-2.3c-3.4,0-5.9,4-5.9,4.1C73.8,63.8,73.2,64.1,72.5,64.1z    M66.6,55.1C66.6,55.1,66.6,55.1,66.6,55.1c3.2,0.1,5.1,1.8,6.3,3.4c1.6-1.6,4.1-3.4,7.2-3.4c2.6,0,5.1,0.7,6.9,1.4l-1.2-7.4   c-0.3-1.8-1.9-3.2-3.7-3.2H63l-0.5,10.8c0.2-0.1,0.3-0.2,0.5-0.3C64.2,55.7,65.3,55.1,66.6,55.1z M27.5,64.1c-0.7,0-1.3-0.4-1.7-1   c0,0-2.5-4.1-5.9-4.1c-4,0-8,2.2-8.1,2.3c-0.9,0.5-2.1,0.2-2.8-0.6c-0.4-0.5-0.6-1.2-0.5-1.9l1.7-10.4c0.6-3.8,3.9-6.6,7.7-6.6h21   c1.1,0,1.9,0.8,2,1.9l0.7,15.7c0,0.5-0.2,1.1-0.6,1.5c-0.4,0.4-0.9,0.6-1.4,0.6h-0.1c-1.6,0-3.1-0.9-4.5-1.6   c-0.6-0.3-1.4-0.8-1.7-0.9c-3,0.1-3.9,3.5-3.9,3.6c-0.2,0.8-0.9,1.4-1.7,1.5C27.7,64.1,27.6,64.1,27.5,64.1z M19.9,55.1   c3.1,0,5.6,1.8,7.2,3.4c1.2-1.6,3.1-3.3,6.2-3.4c1.3,0,2.5,0.6,3.7,1.4c0.1,0.1,0.3,0.2,0.5,0.3L37,45.9H17.9   c-1.9,0-3.4,1.3-3.7,3.2L13,56.4C14.8,55.8,17.3,55.1,19.9,55.1z M56.3,54.7c0-1.1-0.9-2-2-2h-8.7c-1.1,0-2,0.9-2,2   c0,0.8,0.4,1.4,1.1,1.8v1.7c0,1.1,0.9,2,2,2s2-0.9,2-2v-1.4H51v1.4c0,1.1,0.9,2,2,2s2-0.9,2-2v-1.6C55.8,56.3,56.3,55.6,56.3,54.7z    M55.4,43.5c0.4-0.4,0.6-0.9,0.6-1.4c0-0.5-0.2-1-0.6-1.4c-0.7-0.7-2.1-0.7-2.8,0c-0.4,0.4-0.6,0.9-0.6,1.4c0,0.5,0.2,1,0.6,1.4   c0.4,0.4,0.9,0.6,1.4,0.6C54.6,44.1,55.1,43.9,55.4,43.5z M47.4,43.5c0.4-0.4,0.6-0.9,0.6-1.4c0-0.5-0.2-1-0.6-1.4   c-0.7-0.7-2.1-0.7-2.8,0c-0.4,0.4-0.6,0.9-0.6,1.4c0,0.5,0.2,1.1,0.6,1.4c0.4,0.4,0.9,0.6,1.4,0.6C46.6,44.1,47.1,43.9,47.4,43.5z"/>
</g>
</svg>