<svg xmlns="http://www.w3.org/2000/svg" width="400" height="400" version="1.0" viewBox="0 0 300 300"><path d="M219.5 2.4c-5.65 2.65-14.45 11.05-21.35 20.45-4.2 5.7-4.9 6.25-7.65 5.85-8.55-1.35-26.15 4-35.7 10.85l-4.9 3.55-4.85-3.55C135.75 32.7 123.7 28.8 112 28.8h-5.75l-4.55-6.15C90.3 7.15 74.15-4.5 75.5 3.75c.25 1.5.95 8.35 1.55 15.25.6 6.85 1.5 14.05 2 15.9.85 3.3.65 3.7-5.95 10.65-16.8 17.7-20.75 41.5-10.5 63.25l2.5 5.3-1.9 5.2c-11.75 31.6-6 79.35 11.3 93.7 3.2 2.65.55 2.95-30.35 3.2l-31.8.3-3.95 2.75C-3.7 227.6-2 245 11.45 251.1c3.75 1.7 7.65 1.85 52.9 1.9h48.85l-.65 3.75c-1.25 6.6-5.45 12.7-14.75 21.25-10.65 9.85-17.55 22.7-11.05 20.7 27.65-8.65 34.45-9.85 39.95-6.95 14.9 7.9 14.35 7.75 23.3 7.75 8.95 0 8.4.15 23.3-7.75 5.5-2.9 12.3-1.7 39.95 6.95 6.5 2-.4-10.85-11.05-20.7-9.3-8.55-13.5-14.65-14.75-21.25l-.65-3.75h48.85c45.25-.05 49.15-.2 52.9-1.9 13.45-6.1 15.15-23.5 3.05-31.85l-3.95-2.75-31.8-.3c-30.9-.25-33.55-.55-30.35-3.2 17.3-14.35 23.05-62.2 11.25-93.85l-1.95-5.35 2.55-5.15c10.4-20.8 6.35-45.45-10.4-63.1-6.75-7.05-6.8-7.2-6-11.1.5-2.15 1.35-8.9 1.95-14.95.65-6.05 1.35-12.9 1.6-15.25.25-2.35.35-4.25.25-4.25-.15 0-2.5 1.1-5.25 2.4zm-98 44.95c12.5 3.35 27.45 17.4 27.5 25.9 0 .95.45 1.75 1 1.75s1-.8 1-1.75c.05-8.5 15-22.55 27.5-25.9 36.7-9.8 62.45 37 35.3 64-11.65 11.55-29.05 14.3-43.7 6.9-3.55-1.8-6.5-3.15-6.6-3-.1.15-3.05 5.75-6.6 12.5-3.5 6.75-6.6 12.25-6.9 12.25-.3 0-3.4-5.5-6.9-12.25-3.55-6.75-6.5-12.35-6.6-12.5-.1-.15-3.05 1.2-6.6 3-14.85 7.55-34.1 3.95-45.25-8.35-25-27.65 1.15-72.05 36.85-62.55zm-2.75 161.95c1.25 1.15 2.25 2.75 2.25 3.6 0 .95 1.25.05 3.05-2.15 3.9-4.75 9.5-5.25 13.5-1.3 2.35 2.35 2.45 3 2.45 15.55s-.1 13.2-2.45 15.55c-4 3.95-9.6 3.45-13.5-1.3-2-2.45-3.05-3.15-3.05-2.05 0 5.2-9.9 7.5-14.7 3.4l-2.8-2.45v-13c0-12.3.15-13.1 2.35-15.5 3.75-3.95 8.75-4.1 12.9-.35zm57.3 1.55c1.8 2.2 2.95 3 2.95 2.05 0-5.7 10.25-8.1 14.9-3.5 2.55 2.6 2.6 2.95 2.6 15.7v13.05l-2.8 2.45c-4.65 4-14.7 1.85-14.7-3.15 0-.8-.45-1.45-1-1.45s-1 .55-1 1.2c0 5.4-10.15 7.75-14.55 3.35-2.7-2.75-3.75-25.2-1.35-29.7 2.85-5.4 10.5-5.4 14.95 0z"/><path d="M104.5 67.65c-17.6 9.3-11.75 34.85 8 34.85 19.55 0 25.7-25.7 8.3-34.6-4.55-2.3-12.15-2.4-16.3-.25zM179.5 67.65c-17.6 9.3-11.75 34.85 8 34.85 19.55 0 25.7-25.7 8.3-34.6-4.55-2.3-12.15-2.4-16.3-.25z"/></svg>