<?xml version="1.0" encoding="utf-8"?>

<!DOCTYPE svg PUBLIC "-//W3C//DTD SVG 1.1//EN" "http://www.w3.org/Graphics/SVG/1.1/DTD/svg11.dtd">
<!-- Uploaded to: SVG Repo, www.svgrepo.com, Generator: SVG Repo Mixer Tools -->
<svg height="800px" width="800px" version="1.1" id="_x32_" xmlns="http://www.w3.org/2000/svg" xmlns:xlink="http://www.w3.org/1999/xlink" 
	 viewBox="0 0 512 512"  xml:space="preserve">
<style type="text/css">
	.st0{fill:#000000;}
</style>
<g>
	<path class="st0" d="M166.082,260.125c0,0,0,36.131,0,45.764c0,9.634,19.267,48.168,89.912,48.168
		c70.654,0,89.921-38.534,89.921-48.168c0-9.633,0-45.764,0-45.764c25.683,16.062,51.382-19.258,51.382-35.32s0-28.918,0-83.506
		C397.297,86.703,355.545,0,255.995,0c-99.542,0-141.29,86.703-141.29,141.299c0,54.588,0,67.444,0,83.506
		S140.4,276.186,166.082,260.125z M215.657,321.132h-12.572c-5.03,0-9.104-4.066-9.104-9.099v-19.802h21.676V321.132z
		 M215.657,283.407h-21.676v-19.793c0-5.033,4.074-9.108,9.104-9.108h12.572V283.407z M249.775,321.132H228.1v-28.9h21.676V321.132z
		 M249.775,283.407H228.1v-28.9h21.676V283.407z M283.898,321.132h-21.68v-28.9h21.68V321.132z M283.898,283.407h-21.68v-28.9h21.68
		V283.407z M318.017,312.033c0,5.033-4.074,9.099-9.104,9.099h-12.576v-28.9h21.68V312.033z M318.017,283.407h-21.68v-28.9h12.576
		c5.03,0,9.104,4.074,9.104,9.108V283.407z M312.198,125.789c19.948,0,36.122,16.178,36.122,36.122
		c0,19.951-16.174,36.138-36.122,36.138c-19.956,0-36.126-16.187-36.126-36.138C276.072,141.967,292.242,125.789,312.198,125.789z
		 M255.995,189.476l19.877,31.046c6.207,9.934-14.906,22.348-19.877,1.244c-4.958,21.104-26.075,8.69-19.86-1.244L255.995,189.476z
		 M199.8,125.789c19.956,0,36.126,16.178,36.126,36.122c0,19.951-16.17,36.138-36.126,36.138c-19.948,0-36.122-16.187-36.122-36.138
		C163.678,141.967,179.852,125.789,199.8,125.789z"/>
	<path class="st0" d="M396.379,428.588c-8.436-3.932-17.928-2.872-25.132,1.979c-3.728,2.512-10.414,6.746-16.212,6.628
		l-209.419-97.847c-3.798-4.374-4.849-12.222-5.317-16.696c-0.898-8.641-6.182-16.588-14.618-20.536
		c-12.801-5.986-28.028-0.451-34.006,12.347c-3.239,6.92-3.01,14.525-0.188,21.02c-6.795,1.995-12.76,6.695-15.999,13.616
		c-5.981,12.814-0.446,28.042,12.352,34.018c8.431,3.948,17.927,2.88,25.132-1.97c3.727-2.495,10.426-6.744,16.216-6.62
		l209.422,97.847c3.794,4.374,4.838,12.206,5.305,16.688c0.902,8.632,6.178,16.596,14.626,20.528
		c12.798,5.978,28.025,0.459,34.002-12.347c3.243-6.92,3.013-14.525,0.188-21.012c6.795-2.004,12.768-6.695,16.007-13.616
		C414.711,449.809,409.181,434.582,396.379,428.588z"/>
	<path class="st0" d="M436.512,349.098c-3.243-6.92-9.212-11.628-16.007-13.623c2.822-6.495,3.055-14.092-0.184-21.021
		c-5.982-12.798-21.204-18.324-34.006-12.338c-8.444,3.941-13.72,11.896-14.626,20.536c-0.468,4.466-1.51,12.313-5.301,16.679
		l-96.979,45.313l45.86,21.43l67.54-31.556c5.793-0.117,12.488,4.115,16.216,6.62c7.205,4.858,16.696,5.91,25.132,1.97
		C436.959,377.122,442.49,361.896,436.512,349.098z"/>
	<path class="st0" d="M156.962,437.187c-5.786,0.117-12.488-4.124-16.216-6.628c-7.204-4.842-16.692-5.91-25.131-1.978
		c-12.798,5.977-18.329,21.212-12.348,34.034c3.236,6.912,9.204,11.612,15.999,13.607c-2.83,6.495-3.055,14.092,0.188,21.012
		c5.973,12.798,21.204,18.333,34.001,12.347c8.436-3.932,13.72-11.896,14.622-20.536c0.468-4.466,1.515-12.313,5.318-16.688
		l67.498-31.539l-45.86-21.42L156.962,437.187z"/>
</g>
</svg>